<svg width="150" height="150" viewBox="0 0 150 150" fill="none" xmlns="http://www.w3.org/2000/svg">
<g filter="url(#filter0_d_220_1375)">
<path d="M75 131C108.137 131 135 104.137 135 71C135 37.8629 108.137 11 75 11C41.8629 11 15 37.8629 15 71C15 104.137 41.8629 131 75 131Z" fill="url(#paint0_linear_220_1375)"/>
</g>
<path d="M60.1483 100.966L55.9177 96.7352L53.6006 99.0523C52.9869 99.6659 52.1546 100.011 51.2868 100.011C50.419 100.011 49.5867 99.6659 48.973 99.0523L46.7431 96.8247C46.1305 96.2101 45.7866 95.3775 45.7866 94.5097C45.7866 93.6419 46.1305 92.8094 46.7431 92.1947L49.0613 89.8798L44.8298 85.6472C43.8905 84.7063 43.3628 83.4312 43.3628 82.1017C43.3628 80.7722 43.8905 79.4971 44.8298 78.5563C45.5427 77.8416 46.4555 77.3605 47.4478 77.1756L46.417 76.1454C45.1001 74.8248 44.3606 73.0363 44.3606 71.1713C44.3606 69.3063 45.1001 67.5168 46.417 66.1962C47.7369 64.878 49.526 64.1379 51.3915 64.1379C53.2569 64.1379 55.0462 64.878 56.3661 66.1962L64.5479 74.378L78.3752 60.5488L70.1934 52.367C68.8753 51.0464 68.1349 49.2567 68.1349 47.3908C68.1349 45.5249 68.8753 43.7352 70.1934 42.4146C71.514 41.0977 73.3029 40.3585 75.1679 40.3585C77.0329 40.3585 78.8219 41.0977 80.1425 42.4146L81.1733 43.4458C81.3573 42.4534 81.8386 41.5399 82.5534 40.8272C83.4942 39.8879 84.7693 39.3602 86.0988 39.3602C87.4283 39.3602 88.7034 39.8879 89.6443 40.8272L93.8737 45.0577L96.1919 42.7406C96.8056 42.127 97.638 41.7828 98.5058 41.7828C99.3736 41.7828 100.206 42.127 100.82 42.7406L103.049 44.9703C103.353 45.2742 103.594 45.6343 103.759 46.0314C103.923 46.4285 104.008 46.8544 104.008 47.2842C104.008 47.7141 103.923 48.14 103.759 48.5371C103.594 48.9342 103.353 49.2942 103.049 49.5982L100.731 51.9153L104.963 56.1468C105.902 57.0877 106.43 58.3628 106.43 59.6923C106.43 61.0217 105.902 62.2969 104.963 63.2377C104.25 63.953 103.337 64.4353 102.345 64.6195L103.378 65.6528C104.695 66.9735 105.434 68.7619 105.434 70.6269C105.434 72.4919 104.695 74.2804 103.378 75.601C102.057 76.9179 100.268 77.6582 98.4032 77.6582C96.5382 77.6582 94.7493 76.9179 93.4286 75.601L86.414 68.5857L72.5846 82.4128L79.5992 89.4291C80.9171 90.7492 81.6574 92.5378 81.6574 94.4032C81.6574 96.2686 80.9171 98.0572 79.5992 99.3773C78.2791 100.695 76.4899 101.436 74.6246 101.436C72.7592 101.436 70.9701 100.695 69.6501 99.3773L68.6192 98.3471C68.4351 99.3395 67.9539 100.252 67.2392 100.965C66.7742 101.431 66.2217 101.801 65.6134 102.052C65.0051 102.304 64.3531 102.433 63.6948 102.432C63.0363 102.433 62.3839 102.305 61.7752 102.053C61.1665 101.802 60.6136 101.432 60.1483 100.966Z" fill="white"/>
<defs>
<filter id="filter0_d_220_1375" x="0" y="0" width="150" height="150" filterUnits="userSpaceOnUse" color-interpolation-filters="sRGB">
<feFlood flood-opacity="0" result="BackgroundImageFix"/>
<feColorMatrix in="SourceAlpha" type="matrix" values="0 0 0 0 0 0 0 0 0 0 0 0 0 0 0 0 0 0 127 0" result="hardAlpha"/>
<feOffset dy="4"/>
<feGaussianBlur stdDeviation="7.5"/>
<feColorMatrix type="matrix" values="0 0 0 0 0.756863 0 0 0 0 0.780392 0 0 0 0 0.831373 0 0 0 0.251 0"/>
<feBlend mode="normal" in2="BackgroundImageFix" result="effect1_dropShadow_220_1375"/>
<feBlend mode="normal" in="SourceGraphic" in2="effect1_dropShadow_220_1375" result="shape"/>
</filter>
<linearGradient id="paint0_linear_220_1375" x1="75" y1="11" x2="75" y2="131" gradientUnits="userSpaceOnUse">
<stop stop-color="#FFEE00"/>
<stop offset="0.625" stop-color="#ECB300"/>
</linearGradient>
</defs>
</svg>
