<svg width="140" height="46" viewBox="0 0 140 46" fill="none" xmlns="http://www.w3.org/2000/svg">
<g clip-path="url(#clip0_82_1093)">
<path d="M21.0021 23.6395C20.4979 23.6543 19.9963 23.5618 19.5296 23.3679C19.063 23.174 18.6418 22.8831 18.2933 22.514C17.9448 22.1449 17.6768 21.7058 17.5067 21.2252C17.3365 20.7446 17.268 20.2332 17.3055 19.724C17.2661 19.2161 17.3337 18.7056 17.5037 18.2261C17.6736 17.7466 17.9421 17.309 18.2915 16.9422C18.6409 16.5755 19.0631 16.2879 19.5304 16.0985C19.9976 15.9091 20.4992 15.8221 21.0021 15.8434C21.7089 15.8073 22.4107 15.9807 23.0215 16.3424C23.6323 16.704 24.1256 17.2382 24.4409 17.8794V21.5948C24.1225 22.2341 23.6289 22.7669 23.019 23.1296C22.4091 23.4922 21.7089 23.6693 21.0021 23.6395ZM26.7792 13.5898H25.3006C24.9653 13.5898 24.9137 13.642 24.8449 13.9813L24.7332 14.5904C23.6918 13.7059 22.3602 13.2495 21.0021 13.3113C17.615 13.3113 14.5631 15.5562 14.5631 19.7501C14.5208 20.6153 14.6587 21.4798 14.9679 22.2876C15.2771 23.0953 15.7506 23.8282 16.3579 24.4386C16.9651 25.0491 17.6923 25.5235 18.4924 25.831C19.2926 26.1386 20.1476 26.2724 21.0021 26.2237C22.2253 26.2791 23.4237 25.8624 24.3549 25.0578C24.0712 27.8421 22.1799 28.5382 19.4719 28.5382C18.7082 28.5229 17.9467 28.4502 17.1937 28.3207C16.8842 28.2685 16.7639 28.4686 16.7639 28.7296V30.4698C16.7639 30.9571 16.9358 30.9745 17.2711 31.0528C17.9865 31.1826 18.7109 31.2553 19.4375 31.2703C24.0712 31.2703 27.1059 29.8434 27.1059 23.9266V13.9552C27.1403 13.6942 27.0457 13.5898 26.7792 13.5898Z" fill="#040307"/>
<path d="M6.42187 23.5873C5.92301 23.6017 5.42669 23.5105 4.96465 23.3196C4.50262 23.1286 4.08506 22.8422 3.73871 22.4785C3.39235 22.1149 3.12483 21.682 2.95327 21.2077C2.78171 20.7334 2.70989 20.228 2.74241 19.724C2.70989 19.22 2.78171 18.7146 2.95327 18.2403C3.12483 17.766 3.39235 17.3331 3.73871 16.9695C4.08506 16.6058 4.50262 16.3194 4.96465 16.1284C5.42669 15.9375 5.92301 15.8463 6.42187 15.8607C6.92144 15.8465 7.41846 15.9377 7.88133 16.1285C8.3442 16.3192 8.76278 16.6054 9.11047 16.9687C9.45815 17.3321 9.72732 17.7647 9.90087 18.239C10.0744 18.7134 10.1485 19.2191 10.1185 19.724C10.1485 20.2289 10.0744 20.7346 9.90087 21.209C9.72732 21.6833 9.45815 22.1159 9.11047 22.4793C8.76278 22.8426 8.3442 23.1288 7.88133 23.3195C7.41846 23.5103 6.92144 23.6015 6.42187 23.5873ZM6.42187 13.3113C5.57916 13.2865 4.74023 13.4348 3.95569 13.7472C3.17115 14.0596 2.45727 14.5296 1.85713 15.1289C1.25699 15.7281 0.783032 16.4443 0.463849 17.234C0.144667 18.0238 -0.0131202 18.8708 9.21101e-06 19.724C-0.0176851 20.5812 0.136525 21.4332 0.453321 22.2285C0.770117 23.0237 1.24292 23.7457 1.84316 24.3507C2.44341 24.9558 3.15862 25.4314 3.9456 25.7489C4.73257 26.0663 5.57496 26.2189 6.42187 26.1976C7.27272 26.2249 8.12017 26.0767 8.91266 25.7621C9.70515 25.4474 10.4261 24.9729 11.0317 24.3673C11.6372 23.7617 12.1147 23.0378 12.4351 22.2396C12.7555 21.4413 12.9121 20.5854 12.8953 19.724C12.9075 18.8666 12.7474 18.0157 12.4246 17.2229C12.1018 16.4301 11.6231 15.712 11.0177 15.1122C10.4122 14.5125 9.69262 14.0435 8.90257 13.7339C8.11251 13.4244 7.26852 13.2806 6.42187 13.3113Z" fill="#040307"/>
<path d="M67.0556 23.4655C66.5865 23.5861 66.1039 23.6445 65.6199 23.6395C62.9721 23.6395 62.7829 22.3343 62.7829 20.1591V16.609H66.6257C66.8836 16.609 66.9782 16.5133 66.9782 16.2523V14.5817C66.9782 14.3206 66.8836 14.2249 66.6257 14.2249H62.7571V11.3275C62.7571 11.0577 62.6626 10.962 62.3961 10.962H61.2441C60.9776 10.962 60.84 11.0142 60.7455 11.3536C60.1695 13.494 60.0061 14.077 57.8053 14.5817C57.4959 14.66 57.4443 14.7818 57.4443 15.0689V16.2523C57.4443 16.5133 57.5474 16.609 57.8053 16.609H60.0233V20.6724C60.0233 24.3878 61.1237 26.1976 65.6629 26.1976C66.1749 26.1971 66.6853 26.1387 67.1845 26.0236C67.451 25.954 67.5456 25.8321 67.5456 25.5189V23.9266C67.5456 23.4916 67.3565 23.3958 67.0556 23.4655Z" fill="#040307"/>
<path d="M77.3718 14.2249H73.5376V11.3275C73.5376 11.0577 73.443 10.962 73.1765 10.962H72.0074C71.7495 10.962 71.6033 11.0142 71.5087 11.3536C70.9328 13.494 70.7694 14.077 68.5686 14.5817C68.2591 14.66 68.2161 14.7818 68.2161 15.0689V16.2523C68.2161 16.5133 68.3107 16.609 68.5686 16.609H70.7952V20.6724C70.7952 24.2398 71.9128 26.2237 76.4262 26.2237C76.6264 26.2234 76.8257 26.1971 77.0193 26.1454C77.2858 26.0758 77.303 25.9279 77.303 25.6668V24.0484C77.303 23.7787 77.2085 23.6395 76.9506 23.6395H76.4004C73.5376 23.6395 73.5376 22.0211 73.5376 19.6979V16.609H77.3718C77.6297 16.609 77.7243 16.5133 77.7243 16.2523V14.5817C77.7329 14.3206 77.6383 14.2249 77.3718 14.2249Z" fill="#040307"/>
<path d="M85.2036 23.5873C84.7065 23.6008 84.2121 23.5087 83.7523 23.317C83.2926 23.1253 82.8776 22.8382 82.5342 22.4742C82.1907 22.1102 81.9265 21.6774 81.7584 21.2038C81.5904 20.7301 81.5223 20.226 81.5585 19.7241C81.5344 19.2205 81.6116 18.7171 81.7855 18.2446C81.9593 17.7721 82.2261 17.3403 82.5698 16.9752C82.9134 16.6102 83.3267 16.3196 83.7846 16.121C84.2425 15.9224 84.7355 15.8201 85.2336 15.8201C85.7318 15.8201 86.2248 15.9224 86.6827 16.121C87.1406 16.3196 87.5539 16.6102 87.8975 16.9752C88.2412 17.3403 88.508 17.7721 88.6818 18.2446C88.8557 18.7171 88.9329 19.2205 88.9088 19.7241C88.9402 20.23 88.8668 20.7371 88.6932 21.2127C88.5196 21.6882 88.2497 22.1218 87.9009 22.4856C87.552 22.8493 87.1318 23.1353 86.6673 23.325C86.2028 23.5148 85.7042 23.6041 85.2036 23.5873ZM85.2036 13.2853C84.3601 13.2615 83.5207 13.4115 82.7364 13.7262C81.952 14.0409 81.239 14.5137 80.6408 15.1159C80.0426 15.7182 79.5716 16.4372 79.2564 17.2294C78.9412 18.0216 78.7885 18.8703 78.8075 19.7241C78.8075 21.4479 79.4841 23.1011 80.6884 24.32C81.8927 25.539 83.5262 26.2238 85.2294 26.2238C86.9325 26.2238 88.566 25.539 89.7703 24.32C90.9746 23.1011 91.6512 21.4479 91.6512 19.7241C91.6657 18.8683 91.508 18.0185 91.1877 17.2263C90.8673 16.4342 90.3911 15.7163 89.7879 15.1164C89.1847 14.5165 88.4672 14.0471 87.6791 13.7368C86.891 13.4265 86.0487 13.2817 85.2036 13.3114V13.2853Z" fill="#040307"/>
<path d="M46.6552 18.4711C46.7847 17.621 47.2251 16.8513 47.8892 16.3146C48.5533 15.7778 49.3924 15.5134 50.2401 15.5736C50.6437 15.5367 51.0505 15.5834 51.4357 15.7109C51.8209 15.8384 52.1764 16.044 52.4805 16.3151C52.7846 16.5862 53.0309 16.9173 53.2044 17.2879C53.3779 17.6586 53.475 18.0612 53.4897 18.4711H46.6552ZM50.2401 13.2504C49.3911 13.2161 48.5442 13.3601 47.7529 13.6733C46.9615 13.9865 46.2428 14.4621 45.642 15.0702C45.0412 15.6783 44.5712 16.4057 44.2618 17.2067C43.9524 18.0076 43.8101 18.8647 43.844 19.724C43.844 24.0746 46.9991 26.2237 50.8677 26.2237C51.9253 26.2533 52.9824 26.1481 54.0141 25.9105C54.3236 25.8061 54.444 25.7365 54.444 25.3797V23.683C54.444 23.422 54.3236 23.2306 53.9625 23.3002C52.9909 23.5192 52.0004 23.6416 51.0052 23.6656C48.5723 23.6656 46.9733 22.7955 46.6208 20.6724H53.825C55.3294 20.6724 56.2063 20.4027 56.2063 18.3754C56.1805 15.4257 53.7992 13.3114 50.2401 13.3114V13.2504Z" fill="#040307"/>
<path d="M35.634 23.6396C35.1291 23.6572 34.6262 23.5665 34.1583 23.3736C33.6904 23.1806 33.268 22.8898 32.919 22.5201C32.5699 22.1503 32.3021 21.7101 32.1329 21.2283C31.9637 20.7464 31.8971 20.2338 31.9374 19.7241C31.898 19.2162 31.9656 18.7057 32.1355 18.2262C32.3055 17.7466 32.574 17.3091 32.9234 16.9423C33.2727 16.5756 33.695 16.288 34.1622 16.0986C34.6295 15.9091 35.1311 15.8222 35.634 15.8434C36.3406 15.8085 37.0419 15.9824 37.6525 16.3439C38.2631 16.7054 38.7566 17.239 39.0728 17.8795V21.5948C38.7536 22.2334 38.2597 22.7657 37.65 23.1283C37.0404 23.4908 36.3406 23.6683 35.634 23.6396ZM41.4111 13.5899H39.9324C39.5972 13.5899 39.5456 13.6421 39.4768 13.9814L39.3651 14.5905C38.3228 13.7075 36.9919 13.2512 35.634 13.3114C32.2468 13.3114 29.1864 15.5563 29.1864 19.7502C29.1453 20.6158 29.2843 21.4805 29.5945 22.2882C29.9047 23.096 30.3791 23.8288 30.987 24.4391C31.5949 25.0494 32.3226 25.5236 33.1232 25.8311C33.9237 26.1385 34.7791 26.2723 35.634 26.2238C36.8572 26.2792 38.0555 25.8625 38.9868 25.0579C38.7031 27.8422 36.8032 28.5383 34.1038 28.5383C33.3516 28.5213 32.6017 28.4486 31.86 28.3208C31.5505 28.2685 31.4301 28.4687 31.4301 28.7297V30.4699C31.4301 30.9572 31.6021 30.9746 31.9374 31.0529C32.6528 31.1827 33.3771 31.2554 34.1038 31.2704C38.7375 31.2704 41.7636 29.8434 41.7636 23.9267V13.9553C41.7636 13.6943 41.669 13.5899 41.4111 13.5899Z" fill="#040307"/>
<path d="M139.966 5.75886C139.925 5.44796 139.784 5.15932 139.565 4.93756C139.346 4.71579 139.061 4.57327 138.753 4.53201H129.924V3.20075C129.924 2.88229 129.799 2.57687 129.577 2.35169C129.355 2.12651 129.053 2 128.738 2H100.987C100.673 2 100.371 2.12651 100.149 2.35169C99.926 2.57687 99.801 2.88229 99.801 3.20075V4.53201H90.9721C90.6649 4.57327 90.3797 4.71579 90.1606 4.93756C89.9415 5.15932 89.8007 5.44796 89.7599 5.75886C89.7199 6.22784 89.7199 6.69944 89.7599 7.16843C89.7557 7.22055 89.7557 7.27293 89.7599 7.32505C89.8803 8.19515 89.992 9.14357 90.1468 10.0485C90.5781 12.9311 91.6318 15.6821 93.233 18.1057C94.2398 19.6431 95.5802 20.9275 97.1521 21.8609C98.7239 22.7944 100.486 23.3521 102.303 23.4916C103.162 23.5431 104.023 23.5431 104.882 23.4916C105.025 23.4726 105.171 23.4943 105.303 23.5542C105.435 23.6141 105.548 23.7099 105.63 23.831C106.977 25.7393 108.742 27.3058 110.788 28.4077C110.853 28.4546 110.926 28.4899 111.003 28.5121C111.862 28.6774 111.974 29.243 111.948 30.0261C111.897 31.9055 111.948 33.785 111.948 35.6557V36.2474H105.853C105.539 36.2474 105.237 36.3739 105.014 36.5991C104.792 36.8242 104.667 37.1297 104.667 37.4481V39.6408C104.667 39.9592 104.542 40.2646 104.319 40.4898C104.097 40.715 103.795 40.8415 103.48 40.8415C103.17 40.8438 102.873 40.9689 102.653 41.1901C102.433 41.4113 102.307 41.7109 102.303 42.0249V42.1641C102.303 42.4825 102.428 42.788 102.65 43.0131C102.873 43.2383 103.174 43.3648 103.489 43.3648H126.219C126.376 43.366 126.531 43.3358 126.676 43.2759C126.821 43.2161 126.953 43.1278 127.064 43.0162C127.175 42.9046 127.263 42.7719 127.323 42.6256C127.383 42.4794 127.414 42.3225 127.414 42.1641V42.0249C127.414 41.8664 127.383 41.7096 127.323 41.5633C127.263 41.4171 127.175 41.2843 127.064 41.1727C126.953 41.0611 126.821 40.9728 126.676 40.913C126.531 40.8532 126.376 40.823 126.219 40.8241C125.905 40.8241 125.603 40.6976 125.38 40.4724C125.158 40.2472 125.033 39.9418 125.033 39.6234V37.4655C125.033 37.3071 125.002 37.1502 124.942 37.004C124.882 36.8577 124.793 36.725 124.682 36.6134C124.571 36.5017 124.439 36.4135 124.295 36.3537C124.15 36.2938 123.994 36.2636 123.838 36.2648H117.777V35.6731C117.777 33.8024 117.777 31.9229 117.777 30.0435C117.777 29.2604 117.863 28.6948 118.723 28.5295C118.802 28.5058 118.877 28.4706 118.946 28.4251C120.99 27.3209 122.755 25.7548 124.104 23.8484C124.184 23.728 124.296 23.6326 124.427 23.5727C124.557 23.5127 124.702 23.4907 124.844 23.509C125.703 23.5602 126.564 23.5602 127.423 23.509C129.238 23.3676 130.998 22.809 132.568 21.8757C134.138 20.9424 135.477 19.659 136.484 18.1231C138.083 15.699 139.133 12.948 139.562 10.0659C139.716 9.19578 139.828 8.25606 139.957 7.34245C139.957 7.29024 139.957 7.23804 139.957 7.18583C140.001 6.71133 140.004 6.23386 139.966 5.75886ZM103.059 20.2026C101.874 20.1647 100.709 19.8864 99.6327 19.3842C98.5562 18.882 97.5902 18.1661 96.7921 17.2791C95.3259 15.5426 94.3018 13.4695 93.809 11.2405C93.5339 10.1529 93.3534 9.03916 93.1213 7.85581H98.778C99.9988 7.85581 99.973 7.85581 100.111 9.10006C100.433 12.7119 101.415 16.2318 103.008 19.4804C103.111 19.698 103.214 19.9242 103.343 20.1852L103.059 20.2026ZM135.916 11.2405C135.424 13.4695 134.4 15.5426 132.933 17.2791C132.135 18.1661 131.169 18.882 130.093 19.3842C129.016 19.8864 127.851 20.1647 126.666 20.2026H126.391C126.512 19.9416 126.615 19.7154 126.726 19.4978C128.312 16.2472 129.292 12.7281 129.615 9.11747C129.753 7.87321 129.735 7.87321 130.956 7.87321H136.604C136.372 9.03916 136.2 10.1529 135.916 11.2405Z" fill="url(#paint0_linear_82_1093)"/>
<path d="M87.7465 43V41.7676L87.6915 41.5365V39.4349C87.6915 38.9875 87.5595 38.6427 87.2954 38.4006C87.0387 38.1512 86.6499 38.0265 86.1291 38.0265C85.7843 38.0265 85.4469 38.0852 85.1168 38.2026C84.7867 38.3126 84.508 38.463 84.2806 38.6537L83.8404 37.8615C84.1412 37.6194 84.5006 37.436 84.9187 37.3113C85.3442 37.1793 85.788 37.1133 86.2501 37.1133C87.0497 37.1133 87.6659 37.3077 88.0986 37.6964C88.5314 38.0852 88.7478 38.6794 88.7478 39.479V43H87.7465ZM85.832 43.066C85.3992 43.066 85.0178 42.9926 84.6877 42.8459C84.3649 42.6992 84.1155 42.4975 83.9395 42.2407C83.7634 41.9767 83.6754 41.6796 83.6754 41.3495C83.6754 41.0341 83.7487 40.748 83.8954 40.4912C84.0495 40.2345 84.2952 40.0291 84.6327 39.8751C84.9774 39.721 85.4396 39.644 86.0191 39.644H87.8676V40.4032H86.0631C85.5349 40.4032 85.1791 40.4912 84.9958 40.6673C84.8124 40.8433 84.7207 41.0561 84.7207 41.3055C84.7207 41.5916 84.8344 41.8226 85.0618 41.9987C85.2892 42.1674 85.6046 42.2517 86.008 42.2517C86.4042 42.2517 86.7489 42.1637 87.0423 41.9877C87.3431 41.8116 87.5595 41.5549 87.6915 41.2175L87.9006 41.9437C87.7612 42.2884 87.5155 42.5635 87.1634 42.7689C86.8113 42.9669 86.3675 43.066 85.832 43.066Z" fill="#040307"/>
<path d="M79.751 37.1133C80.2278 37.1133 80.6459 37.205 81.0053 37.3884C81.3721 37.5717 81.6582 37.8505 81.8636 38.2246C82.069 38.5987 82.1717 39.0718 82.1717 39.644V43H81.1154V39.765C81.1154 39.2002 80.976 38.7748 80.6972 38.4887C80.4258 38.2026 80.0407 38.0596 79.5419 38.0596C79.1678 38.0596 78.8414 38.1329 78.5626 38.2796C78.2839 38.4263 78.0675 38.6427 77.9134 38.9288C77.7667 39.2149 77.6934 39.5706 77.6934 39.9961V43H76.6371V37.1683H77.6494V38.7417L77.4843 38.3236C77.675 37.9422 77.9685 37.6451 78.3646 37.4324C78.7607 37.2196 79.2228 37.1133 79.751 37.1133Z" fill="#040307"/>
<path d="M72.4965 43.066C71.873 43.066 71.3229 42.9376 70.8461 42.6809C70.3766 42.4241 70.0098 42.072 69.7458 41.6246C69.489 41.1771 69.3607 40.6636 69.3607 40.0841C69.3607 39.5046 69.4854 38.9911 69.7348 38.5437C69.9915 38.0962 70.3399 37.7478 70.7801 37.4984C71.2275 37.2417 71.73 37.1133 72.2875 37.1133C72.8523 37.1133 73.3511 37.238 73.7839 37.4874C74.2167 37.7368 74.5541 38.0889 74.7962 38.5437C75.0456 38.9911 75.1703 39.5156 75.1703 40.1171C75.1703 40.1611 75.1666 40.2125 75.1593 40.2712C75.1593 40.3299 75.1556 40.3849 75.1483 40.4362H70.1859V39.677H74.5981L74.169 39.9411C74.1764 39.567 74.0993 39.2332 73.938 38.9398C73.7766 38.6464 73.5529 38.419 73.2668 38.2576C72.988 38.0889 72.6616 38.0045 72.2875 38.0045C71.9207 38.0045 71.5943 38.0889 71.3082 38.2576C71.0221 38.419 70.7984 38.6501 70.637 38.9508C70.4756 39.2442 70.395 39.5817 70.395 39.9631V40.1391C70.395 40.5279 70.483 40.8764 70.659 41.1844C70.8424 41.4852 71.0955 41.7199 71.4182 41.8886C71.741 42.0574 72.1114 42.1417 72.5296 42.1417C72.8743 42.1417 73.1861 42.083 73.4648 41.9657C73.7509 41.8483 74.0003 41.6722 74.213 41.4375L74.7962 42.1197C74.5321 42.4278 74.202 42.6625 73.8059 42.8239C73.4171 42.9853 72.9807 43.066 72.4965 43.066Z" fill="#040307"/>
<path d="M65.5157 43V37.1683H66.528V38.7527L66.429 38.3566C66.5904 37.9532 66.8618 37.6451 67.2432 37.4324C67.6247 37.2196 68.0941 37.1133 68.6516 37.1133V38.1366C68.6076 38.1292 68.5636 38.1256 68.5196 38.1256C68.4829 38.1256 68.4462 38.1256 68.4096 38.1256C67.8447 38.1256 67.3973 38.2943 67.0672 38.6317C66.7371 38.9691 66.572 39.4569 66.572 40.0951V43H65.5157Z" fill="#040307"/>
<path d="M62.5597 43V41.7676L62.5047 41.5365V39.4349C62.5047 38.9875 62.3726 38.6427 62.1086 38.4006C61.8518 38.1512 61.463 38.0265 60.9422 38.0265C60.5975 38.0265 60.26 38.0852 59.9299 38.2026C59.5998 38.3126 59.3211 38.463 59.0937 38.6537L58.6536 37.8615C58.9543 37.6194 59.3138 37.436 59.7319 37.3113C60.1573 37.1793 60.6011 37.1133 61.0633 37.1133C61.8628 37.1133 62.479 37.3077 62.9118 37.6964C63.3446 38.0852 63.561 38.6794 63.561 39.479V43H62.5597ZM60.6451 43.066C60.2124 43.066 59.8309 42.9926 59.5008 42.8459C59.1781 42.6992 58.9287 42.4975 58.7526 42.2407C58.5766 41.9767 58.4885 41.6796 58.4885 41.3495C58.4885 41.0341 58.5619 40.748 58.7086 40.4912C58.8626 40.2345 59.1084 40.0291 59.4458 39.8751C59.7906 39.721 60.2527 39.644 60.8322 39.644H62.6807V40.4032H60.8762C60.3481 40.4032 59.9923 40.4912 59.8089 40.6673C59.6255 40.8433 59.5338 41.0561 59.5338 41.3055C59.5338 41.5916 59.6475 41.8226 59.8749 41.9987C60.1023 42.1674 60.4177 42.2517 60.8212 42.2517C61.2173 42.2517 61.5621 42.1637 61.8555 41.9877C62.1562 41.8116 62.3726 41.5549 62.5047 41.2175L62.7137 41.9437C62.5744 42.2884 62.3286 42.5635 61.9765 42.7689C61.6244 42.9669 61.1806 43.066 60.6451 43.066Z" fill="#040307"/>
<path d="M51.8442 43.066C51.2207 43.066 50.6705 42.9376 50.1937 42.6809C49.7242 42.4241 49.3575 42.072 49.0934 41.6246C48.8367 41.1771 48.7083 40.6636 48.7083 40.0841C48.7083 39.5046 48.833 38.9911 49.0824 38.5437C49.3391 38.0962 49.6876 37.7478 50.1277 37.4984C50.5751 37.2417 51.0776 37.1133 51.6351 37.1133C52.1999 37.1133 52.6988 37.238 53.1315 37.4874C53.5643 37.7368 53.9018 38.0889 54.1438 38.5437C54.3932 38.9911 54.5179 39.5156 54.5179 40.1171C54.5179 40.1611 54.5143 40.2125 54.5069 40.2712C54.5069 40.3299 54.5033 40.3849 54.4959 40.4362H49.5335V39.677H53.9458L53.5167 39.9411C53.524 39.567 53.447 39.2332 53.2856 38.9398C53.1242 38.6464 52.9005 38.419 52.6144 38.2576C52.3356 38.0889 52.0092 38.0045 51.6351 38.0045C51.2683 38.0045 50.9419 38.0889 50.6558 38.2576C50.3698 38.419 50.146 38.6501 49.9846 38.9508C49.8233 39.2442 49.7426 39.5817 49.7426 39.9631V40.1391C49.7426 40.5279 49.8306 40.8764 50.0067 41.1844C50.19 41.4852 50.4431 41.7199 50.7659 41.8886C51.0886 42.0574 51.4591 42.1417 51.8772 42.1417C52.222 42.1417 52.5337 42.083 52.8125 41.9657C53.0985 41.8483 53.3479 41.6722 53.5607 41.4375L54.1438 42.1197C53.8798 42.4278 53.5497 42.6625 53.1535 42.8239C52.7648 42.9853 52.3283 43.066 51.8442 43.066Z" fill="#040307"/>
<path d="M44.2033 45.2006C43.6678 45.2006 43.147 45.1236 42.6408 44.9695C42.142 44.8228 41.7349 44.6101 41.4195 44.3313L41.9256 43.5171C42.197 43.7518 42.5308 43.9352 42.9269 44.0673C43.323 44.2066 43.7375 44.2763 44.1703 44.2763C44.8598 44.2763 45.366 44.1149 45.6887 43.7922C46.0115 43.4694 46.1728 42.978 46.1728 42.3178V41.0854L46.2829 39.9301L46.2279 38.7638V37.1683H47.2291V42.2077C47.2291 43.2347 46.9724 43.9902 46.4589 44.4744C45.9454 44.9585 45.1936 45.2006 44.2033 45.2006ZM44.0712 42.7579C43.5064 42.7579 43.0003 42.6405 42.5528 42.4058C42.1127 42.1637 41.7606 41.83 41.4965 41.4045C41.2398 40.979 41.1114 40.4876 41.1114 39.9301C41.1114 39.3653 41.2398 38.8738 41.4965 38.4557C41.7606 38.0302 42.1127 37.7001 42.5528 37.4654C43.0003 37.2306 43.5064 37.1133 44.0712 37.1133C44.5701 37.1133 45.0249 37.216 45.4356 37.4214C45.8464 37.6194 46.1728 37.9275 46.4149 38.3456C46.6643 38.7638 46.789 39.2919 46.789 39.9301C46.789 40.5609 46.6643 41.0854 46.4149 41.5035C46.1728 41.9217 45.8464 42.2371 45.4356 42.4498C45.0249 42.6552 44.5701 42.7579 44.0712 42.7579ZM44.1923 41.8336C44.5811 41.8336 44.9258 41.7529 45.2266 41.5916C45.5273 41.4302 45.7621 41.2064 45.9308 40.9204C46.1068 40.6343 46.1949 40.3042 46.1949 39.9301C46.1949 39.556 46.1068 39.2259 45.9308 38.9398C45.7621 38.6537 45.5273 38.4337 45.2266 38.2796C44.9258 38.1182 44.5811 38.0375 44.1923 38.0375C43.8035 38.0375 43.4551 38.1182 43.147 38.2796C42.8462 38.4337 42.6078 38.6537 42.4318 38.9398C42.2631 39.2259 42.1787 39.556 42.1787 39.9301C42.1787 40.3042 42.2631 40.6343 42.4318 40.9204C42.6078 41.2064 42.8462 41.4302 43.147 41.5916C43.4551 41.7529 43.8035 41.8336 44.1923 41.8336Z" fill="#040307"/>
<path d="M37.275 37.1133C37.7518 37.1133 38.1699 37.205 38.5294 37.3884C38.8961 37.5717 39.1822 37.8505 39.3876 38.2246C39.593 38.5987 39.6957 39.0718 39.6957 39.644V43H38.6394V39.765C38.6394 39.2002 38.5 38.7748 38.2213 38.4887C37.9499 38.2026 37.5648 38.0596 37.0659 38.0596C36.6918 38.0596 36.3654 38.1329 36.0867 38.2796C35.8079 38.4263 35.5915 38.6427 35.4375 38.9288C35.2908 39.2149 35.2174 39.5706 35.2174 39.9961V43H34.1611V37.1683H35.1734V38.7417L35.0084 38.3236C35.1991 37.9422 35.4925 37.6451 35.8886 37.4324C36.2847 37.2196 36.7469 37.1133 37.275 37.1133Z" fill="#040307"/>
<path d="M30.0206 43.066C29.3971 43.066 28.8469 42.9376 28.3701 42.6809C27.9006 42.4241 27.5339 42.072 27.2698 41.6246C27.0131 41.1771 26.8847 40.6636 26.8847 40.0841C26.8847 39.5046 27.0094 38.9911 27.2588 38.5437C27.5155 38.0962 27.864 37.7478 28.3041 37.4984C28.7516 37.2417 29.254 37.1133 29.8115 37.1133C30.3764 37.1133 30.8752 37.238 31.3079 37.4874C31.7407 37.7368 32.0782 38.0889 32.3202 38.5437C32.5696 38.9911 32.6943 39.5156 32.6943 40.1171C32.6943 40.1611 32.6907 40.2125 32.6833 40.2712C32.6833 40.3299 32.6797 40.3849 32.6723 40.4362H27.7099V39.677H32.1222L31.6931 39.9411C31.7004 39.567 31.6234 39.2332 31.462 38.9398C31.3006 38.6464 31.0769 38.419 30.7908 38.2576C30.5121 38.0889 30.1856 38.0045 29.8115 38.0045C29.4448 38.0045 29.1183 38.0889 28.8322 38.2576C28.5462 38.419 28.3224 38.6501 28.1611 38.9508C27.9997 39.2442 27.919 39.5817 27.919 39.9631V40.1391C27.919 40.5279 28.007 40.8764 28.1831 41.1844C28.3664 41.4852 28.6195 41.7199 28.9423 41.8886C29.265 42.0574 29.6355 42.1417 30.0536 42.1417C30.3984 42.1417 30.7101 42.083 30.9889 41.9657C31.2749 41.8483 31.5243 41.6722 31.7371 41.4375L32.3202 42.1197C32.0562 42.4278 31.7261 42.6625 31.33 42.8239C30.9412 42.9853 30.5047 43.066 30.0206 43.066Z" fill="#040307"/>
<path d="M24.3507 43V34.8357H25.407V43H24.3507Z" fill="#040307"/>
<path d="M21.2776 43V34.8357H22.3339V43H21.2776Z" fill="#040307"/>
<path d="M18.3215 43V41.7676L18.2665 41.5365V39.4349C18.2665 38.9875 18.1345 38.6427 17.8704 38.4006C17.6136 38.1512 17.2249 38.0265 16.704 38.0265C16.3593 38.0265 16.0219 38.0852 15.6918 38.2026C15.3617 38.3126 15.0829 38.463 14.8555 38.6537L14.4154 37.8615C14.7161 37.6194 15.0756 37.436 15.4937 37.3113C15.9192 37.1793 16.363 37.1133 16.8251 37.1133C17.6246 37.1133 18.2408 37.3077 18.6736 37.6964C19.1064 38.0852 19.3228 38.6794 19.3228 39.479V43H18.3215ZM16.407 43.066C15.9742 43.066 15.5927 42.9926 15.2626 42.8459C14.9399 42.6992 14.6905 42.4975 14.5144 42.2407C14.3384 41.9767 14.2504 41.6796 14.2504 41.3495C14.2504 41.0341 14.3237 40.748 14.4704 40.4912C14.6245 40.2345 14.8702 40.0291 15.2076 39.8751C15.5524 39.721 16.0145 39.644 16.594 39.644H18.4425V40.4032H16.638C16.1099 40.4032 15.7541 40.4912 15.5707 40.6673C15.3873 40.8433 15.2956 41.0561 15.2956 41.3055C15.2956 41.5916 15.4093 41.8226 15.6367 41.9987C15.8641 42.1674 16.1796 42.2517 16.583 42.2517C16.9791 42.2517 17.3239 42.1637 17.6173 41.9877C17.9181 41.8116 18.1345 41.5549 18.2665 41.2175L18.4756 41.9437C18.3362 42.2884 18.0904 42.5635 17.7383 42.7689C17.3862 42.9669 16.9425 43.066 16.407 43.066Z" fill="#040307"/>
<path d="M10.3259 37.1133C10.8027 37.1133 11.2208 37.205 11.5803 37.3884C11.9471 37.5718 12.2331 37.8506 12.4385 38.2247C12.6439 38.5988 12.7466 39.0719 12.7466 39.6441V43H11.6903V39.7651C11.6903 39.2003 11.5509 38.7748 11.2722 38.4887C11.0008 38.2027 10.6157 38.0596 10.1169 38.0596C9.74276 38.0596 9.41633 38.133 9.13758 38.2797C8.85884 38.4264 8.64244 38.6428 8.4884 38.9289C8.34169 39.2149 8.26834 39.5707 8.26834 39.9962V43H7.21204V34.8357H8.26834V38.7418L8.05928 38.3237C8.25 37.9422 8.54342 37.6452 8.93953 37.4324C9.33564 37.2197 9.79777 37.1133 10.3259 37.1133Z" fill="#040307"/>
<path d="M3.54301 43.066C2.94884 43.066 2.41702 42.9376 1.94755 42.6809C1.48542 42.4241 1.12232 42.072 0.858241 41.6246C0.594165 41.1771 0.462128 40.6636 0.462128 40.0841C0.462128 39.5046 0.594165 38.9911 0.858241 38.5437C1.12232 38.0962 1.48542 37.7478 1.94755 37.4984C2.41702 37.2417 2.94884 37.1133 3.54301 37.1133C4.07116 37.1133 4.54062 37.2196 4.95141 37.4324C5.36953 37.6378 5.69228 37.9459 5.91968 38.3566L5.11645 38.8738C4.92573 38.5877 4.691 38.3786 4.41225 38.2466C4.14084 38.1072 3.84743 38.0375 3.532 38.0375C3.15056 38.0375 2.80946 38.1219 2.50871 38.2906C2.20796 38.4593 1.96956 38.6977 1.79351 39.0058C1.61746 39.3066 1.52943 39.666 1.52943 40.0841C1.52943 40.5022 1.61746 40.8654 1.79351 41.1734C1.96956 41.4815 2.20796 41.7199 2.50871 41.8886C2.80946 42.0574 3.15056 42.1417 3.532 42.1417C3.84743 42.1417 4.14084 42.0757 4.41225 41.9437C4.691 41.8043 4.92573 41.5916 5.11645 41.3055L5.91968 41.8116C5.69228 42.2151 5.36953 42.5268 4.95141 42.7469C4.54062 42.9596 4.07116 43.066 3.54301 43.066Z" fill="#040307"/>
</g>
<defs>
<linearGradient id="paint0_linear_82_1093" x1="114.863" y1="-4.81293" x2="114.863" y2="45.6271" gradientUnits="userSpaceOnUse">
<stop offset="0.06" stop-color="white"/>
<stop offset="0.35" stop-color="#FCF785"/>
<stop offset="0.7" stop-color="#F8F113"/>
<stop offset="1" stop-color="#EBAB0B"/>
</linearGradient>
<clipPath id="clip0_82_1093">
<rect width="140" height="46" fill="white"/>
</clipPath>
</defs>
</svg>
